# xmcd
#
# Track frame offsets: 
#        150
#        12680
#        24292
#        36555
#        49917
#        61822
#        75387
#        88912
#        104937
#        114890
#        128925
#        143042
#        155070
#        167405
#        179325
#        190772
#        200015
#        217937
#        227307
#        237062
#
# Disc length: 3343 seconds
#
# Revision: 2
# Processed by: cddbd v1.5.2PL0 Copyright (c) Steve Scherf et al.
# Submitted via: ExactAudioCopy v0.95b4
#
DISCID=0e0d0d14
DTITLE=Dottie West - The Essential Dottie West
DYEAR=1996
DGENRE=Country
TTITLE0=Love Is No Excuse (Duet with Jim Reeves)
TTITLE1=Here Comes My Baby
TTITLE2=Would You Hold It Against Me
TTITLE3=What's Come Over My Baby
TTITLE4=Me Today and Her Tomorrow
TTITLE5=Mommy, Can I Still Call Him Daddy
TTITLE6=Paper Mansions
TTITLE7=His Eye Is On the Sparrow
TTITLE8=Like a Fool
TTITLE9=Childhood Places
TTITLE10=Country Girl
TTITLE11=Reno
TTITLE12=Rings Of Gold (Duet with Don Gibson)
TTITLE13=There's a Story (Goin' Round) (Duet with Don Gibson)
TTITLE14=Forever Yours
TTITLE15=Slowly
TTITLE16=Six Weeks Every Summer (Christmas Every Other Year)
TTITLE17=Country Sunshine
TTITLE18=House of Love
TTITLE19=Last Time I Saw Him
EXTD=
EXTT0=Dottie West and Jim Reeves
EXTT1=Dottie West
EXTT2=Dottie West
EXTT3=Dottie West
EXTT4=Dottie West
EXTT5=Dottie West
EXTT6=Dottie West
EXTT7=Dottie West
EXTT8=Dottie West
EXTT9=Dottie West
EXTT10=Dottie West
EXTT11=Dottie West
EXTT12=Dottie West and Don Gibson
EXTT13=Dottie West and Don Gibson
EXTT14=Dottie West
EXTT15=Dottie West and Jimmy Dean
EXTT16=Dottie West
EXTT17=Dottie West
EXTT18=Dottie West
EXTT19=Dottie West
PLAYORDER=
